<?xml version="1.0" encoding="UTF-8" standalone="no"?><!-- Generator: Gravit.io --><svg xmlns="http://www.w3.org/2000/svg" xmlns:xlink="http://www.w3.org/1999/xlink" style="isolation:isolate" viewBox="0 0 343 191" width="343pt" height="191pt"><defs><clipPath id="_clipPath_djeqr3gDUy8fgFlgBSebqgiagqA1jgx6"><rect x="0" y="0" width="343" height="191"/></clipPath></defs><g clip-path="url(#_clipPath_djeqr3gDUy8fgFlgBSebqgiagqA1jgx6)"><clipPath id="_clipPath_bcfk98nzBexgrv6DwK1SUrCNvadvH7ZM"><path d="M 8 0 L 335 0 C 339.415 0 343 3.585 343 8 L 343 183 C 343 187.415 339.415 191 335 191 L 8 191 C 3.585 191 0 187.415 0 183 L 0 8 C 0 3.585 3.585 0 8 0 Z" style="stroke:none;fill:#FFFFFF;stroke-miterlimit:10;"/></clipPath><g clip-path="url(#_clipPath_bcfk98nzBexgrv6DwK1SUrCNvadvH7ZM)"><g><defs><linearGradient id="_lgradient_0" x1="0.5" y1="-0.49999999999999994" x2="0.02662040816326533" y2="0.35009912536442983"><stop offset="0%" style="stop-color:#BD7AE3"/><stop offset="100%" style="stop-color:#8461C9"/></linearGradient></defs><path d="M 8 0 L 335 0 C 339.415 0 343 3.585 343 8 L 343 183 C 343 187.415 339.415 191 335 191 L 8 191 C 3.585 191 0 187.415 0 183 L 0 8 C 0 3.585 3.585 0 8 0 Z" style="stroke:none;fill:url(#_lgradient_0);stroke-miterlimit:10;"/><g filter="url(#cnX08tNRF6FUWsF3Hv4drVybaDkXwfJj)"><radialGradient id="_rgradient_0" fx="0.4184420830941815" fy="-0.28455557170344875" cx="0.4184420830941815" cy="-0.28455557170344875" r="1" gradientTransform="matrix(519.222,0,0,226.615,-72.149,-12.073)" gradientUnits="userSpaceOnUse"><stop offset="0%" stop-opacity="1" style="stop-color:rgb(189,122,227)"/><stop offset="100%" stop-opacity="1" style="stop-color:rgb(132,97,201)"/></radialGradient><path d=" M 359.49 -10.26 C 162.43 14.207 122.853 160.219 -42.05 198.103 C -206.954 235.988 359.49 196.525 359.49 196.525 C 359.49 196.525 556.551 -34.727 359.49 -10.26 Z " fill="url(#_rgradient_0)"/></g><defs><filter id="cnX08tNRF6FUWsF3Hv4drVybaDkXwfJj" x="-200%" y="-200%" width="400%" height="400%" filterUnits="objectBoundingBox" color-interpolation-filters="sRGB"><feGaussianBlur xmlns="http://www.w3.org/2000/svg" in="SourceGraphic" stdDeviation="2"/><feOffset xmlns="http://www.w3.org/2000/svg" dx="0" dy="4" result="pf_100_offsetBlur"/><feFlood xmlns="http://www.w3.org/2000/svg" flood-color="#000000" flood-opacity="0"/><feComposite xmlns="http://www.w3.org/2000/svg" in2="pf_100_offsetBlur" operator="in" result="pf_100_dropShadow"/><feBlend xmlns="http://www.w3.org/2000/svg" in="SourceGraphic" in2="pf_100_dropShadow" mode="normal"/></filter></defs><g filter="url(#NyTH1mheRicLiqTG9HHSTjjuTbkpkAYO)"><radialGradient id="_rgradient_1" fx="0.049227539704011766" fy="0.08010495253873484" cx="0.049227539704011766" cy="0.08010495253873484" r="1" gradientTransform="matrix(519.222,0,0,226.615,-64.312,45.777)" gradientUnits="userSpaceOnUse"><stop offset="0%" stop-opacity="1" style="stop-color:rgb(189,122,227)"/><stop offset="100%" stop-opacity="1" style="stop-color:rgb(132,97,201)"/></radialGradient><path d=" M 367.327 47.59 C 170.267 72.057 130.69 218.069 -34.213 255.954 C -199.117 293.838 367.327 254.375 367.327 254.375 C 367.327 254.375 564.387 23.123 367.327 47.59 Z " fill="url(#_rgradient_1)"/></g><defs><filter id="NyTH1mheRicLiqTG9HHSTjjuTbkpkAYO" x="-200%" y="-200%" width="400%" height="400%" filterUnits="objectBoundingBox" color-interpolation-filters="sRGB"><feGaussianBlur xmlns="http://www.w3.org/2000/svg" in="SourceGraphic" stdDeviation="2"/><feOffset xmlns="http://www.w3.org/2000/svg" dx="0" dy="4" result="pf_100_offsetBlur"/><feFlood xmlns="http://www.w3.org/2000/svg" flood-color="#000000" flood-opacity="0"/><feComposite xmlns="http://www.w3.org/2000/svg" in2="pf_100_offsetBlur" operator="in" result="pf_100_dropShadow"/><feBlend xmlns="http://www.w3.org/2000/svg" in="SourceGraphic" in2="pf_100_dropShadow" mode="normal"/></filter></defs><g filter="url(#v1axwTAcN73T5Lo56eN9gpjstuGHIyVn)"><radialGradient id="_rgradient_2" fx="0.11751122729254303" fy="0.03482812809250696" cx="0.11751122729254303" cy="0.03482812809250696" r="1" gradientTransform="matrix(519.222,0,0,226.614,-13.192,71.033)" gradientUnits="userSpaceOnUse"><stop offset="0%" stop-opacity="1" style="stop-color:rgb(189,122,227)"/><stop offset="100%" stop-opacity="1" style="stop-color:rgb(132,97,201)"/></radialGradient><path d=" M 418.448 72.846 C 221.388 97.313 181.811 243.325 16.907 281.21 C -147.997 319.094 418.448 279.631 418.448 279.631 C 418.448 279.631 615.508 48.379 418.448 72.846 Z " fill="url(#_rgradient_2)"/></g><defs><filter id="v1axwTAcN73T5Lo56eN9gpjstuGHIyVn" x="-200%" y="-200%" width="400%" height="400%" filterUnits="objectBoundingBox" color-interpolation-filters="sRGB"><feGaussianBlur xmlns="http://www.w3.org/2000/svg" in="SourceGraphic" stdDeviation="2"/><feOffset xmlns="http://www.w3.org/2000/svg" dx="0" dy="4" result="pf_100_offsetBlur"/><feFlood xmlns="http://www.w3.org/2000/svg" flood-color="#000000" flood-opacity="0"/><feComposite xmlns="http://www.w3.org/2000/svg" in2="pf_100_offsetBlur" operator="in" result="pf_100_dropShadow"/><feBlend xmlns="http://www.w3.org/2000/svg" in="SourceGraphic" in2="pf_100_dropShadow" mode="normal"/></filter></defs><g><linearGradient id="_lgradient_1" x1="0.4999972730745499" y1="-0.4999998184793141" x2="-0.8547093111457291" y2="0.29742519294596237" gradientTransform="matrix(162.139,0,0,275.451,207.246,-51.302)" gradientUnits="userSpaceOnUse"><stop offset="0%" stop-opacity="1" style="stop-color:rgb(189,122,227)"/><stop offset="100%" stop-opacity="1" style="stop-color:rgb(132,97,201)"/></linearGradient><path d=" M 369.385 224.149 C 228.77 130.564 190.345 73.974 213.551 -36.306 L 366.087 -51.302 L 369.385 224.149 Z " fill="url(#_lgradient_1)"/></g></g></g></g></svg>