<?xml version="1.0" encoding="UTF-8" standalone="no"?><!-- Generator: Gravit.io --><svg xmlns="http://www.w3.org/2000/svg" xmlns:xlink="http://www.w3.org/1999/xlink" style="isolation:isolate" viewBox="0 0 179.463 24.769" width="179.463pt" height="24.769pt"><defs><clipPath id="_clipPath_5XWYfm4SUVqlp2QAMis0TDyKat3zm4nZ"><rect x="0" y="0" width="179.463" height="24.769"/></clipPath></defs><g clip-path="url(#_clipPath_5XWYfm4SUVqlp2QAMis0TDyKat3zm4nZ)"><g><path d=" M 0 0.415 L 0 24.371 L 5.014 24.371 L 5.014 16.817 L 9.496 16.817 C 14.543 16.817 18.046 13.53 18.046 8.616 C 18.046 3.686 14.659 0.415 9.745 0.415 L 0 0.415 Z  M 5.014 4.383 L 8.417 4.383 C 11.289 4.383 12.949 5.91 12.949 8.633 C 12.949 11.372 11.272 12.899 8.4 12.899 L 5.014 12.899 L 5.014 4.383 Z  M 20.719 24.371 L 25.566 24.371 L 25.566 14.211 C 25.566 11.87 26.911 10.26 29.202 10.26 C 31.41 10.26 32.539 11.654 32.539 13.945 L 32.539 24.371 L 37.387 24.371 L 37.387 12.916 C 37.387 8.799 35.129 6.242 31.178 6.242 C 28.472 6.242 26.529 7.504 25.583 9.745 L 25.483 9.745 L 25.483 0.415 L 20.719 0.415 L 20.719 24.371 Z  M 48.659 24.753 C 54.038 24.753 57.475 21.316 57.475 15.456 C 57.475 9.679 53.988 6.192 48.659 6.192 C 43.33 6.192 39.844 9.695 39.844 15.456 C 39.844 21.3 43.28 24.753 48.659 24.753 Z  M 48.659 21.051 C 46.269 21.051 44.758 19.042 44.758 15.473 C 44.758 11.936 46.302 9.894 48.659 9.894 C 51.017 9.894 52.544 11.936 52.544 15.473 C 52.544 19.042 51.033 21.051 48.659 21.051 Z  M 61.276 2.474 L 61.276 6.574 L 58.769 6.574 L 58.769 10.227 L 61.276 10.227 L 61.276 19.573 C 61.276 23.043 62.903 24.437 67.087 24.437 C 68.066 24.437 68.896 24.354 69.395 24.238 L 69.395 20.669 C 69.096 20.719 68.648 20.752 68.216 20.752 C 66.788 20.752 66.124 20.104 66.124 18.743 L 66.124 10.227 L 69.411 10.227 L 69.411 6.574 L 66.124 6.574 L 66.124 2.474 L 61.276 2.474 Z  M 79.97 24.753 C 85.349 24.753 88.785 21.316 88.785 15.456 C 88.785 9.679 85.299 6.192 79.97 6.192 C 74.641 6.192 71.154 9.695 71.154 15.456 C 71.154 21.3 74.591 24.753 79.97 24.753 Z  M 79.97 21.051 C 77.579 21.051 76.068 19.042 76.068 15.473 C 76.068 11.936 77.612 9.894 79.97 9.894 C 82.327 9.894 83.855 11.936 83.855 15.473 C 83.855 19.042 82.344 21.051 79.97 21.051 Z " fill="rgb(190,82,242)"/><path d=" M 90.794 17.531 C 90.943 22.047 94.745 24.769 100.456 24.769 C 106.449 24.769 110.118 21.814 110.118 17.133 C 110.118 13.497 107.91 11.455 102.846 10.442 L 100.306 9.928 C 97.484 9.363 96.322 8.45 96.322 6.973 C 96.322 5.213 97.982 4.051 100.456 4.051 C 102.979 4.051 104.756 5.279 104.922 7.321 L 109.653 7.321 C 109.57 2.922 106.051 0 100.456 0 C 95.127 0 91.309 2.905 91.309 7.288 C 91.309 10.857 93.649 13.148 98.43 14.095 L 100.954 14.593 C 103.959 15.207 105.088 16.103 105.088 17.681 C 105.088 19.44 103.262 20.735 100.589 20.735 C 97.866 20.735 95.841 19.54 95.525 17.531 L 90.794 17.531 Z  M 112.89 24.371 L 117.738 24.371 L 117.738 14.211 C 117.738 11.87 119.083 10.26 121.374 10.26 C 123.582 10.26 124.711 11.654 124.711 13.945 L 124.711 24.371 L 129.558 24.371 L 129.558 12.916 C 129.558 8.799 127.301 6.242 123.349 6.242 C 120.643 6.242 118.701 7.504 117.755 9.745 L 117.655 9.745 L 117.655 0.415 L 112.89 0.415 L 112.89 24.371 Z  M 137.942 24.653 C 140.167 24.653 142.375 23.541 143.371 21.648 L 143.471 21.648 L 143.471 24.371 L 148.152 24.371 L 148.152 12.136 C 148.152 8.55 145.18 6.192 140.615 6.192 C 135.9 6.192 132.962 8.566 132.779 12.019 L 137.212 12.019 C 137.444 10.708 138.59 9.811 140.399 9.811 C 142.225 9.811 143.388 10.774 143.388 12.435 L 143.388 13.613 L 138.905 13.879 C 134.472 14.144 131.982 16.02 131.982 19.258 C 131.982 22.462 134.555 24.653 137.942 24.653 Z  M 139.536 21.15 C 137.892 21.15 136.797 20.32 136.797 18.992 C 136.797 17.73 137.826 16.917 139.636 16.784 L 143.388 16.552 L 143.388 17.847 C 143.388 19.772 141.644 21.15 139.536 21.15 Z  M 151.29 24.371 L 156.138 24.371 L 156.138 14.427 C 156.138 11.92 157.532 10.459 159.923 10.459 C 160.62 10.459 161.284 10.575 161.682 10.741 L 161.682 6.475 C 161.35 6.375 160.869 6.292 160.304 6.292 C 158.213 6.292 156.702 7.52 156.071 9.778 L 155.971 9.778 L 155.971 6.574 L 151.29 6.574 L 151.29 24.371 Z  M 174.864 18.926 C 174.416 20.287 173.054 21.167 171.278 21.167 C 168.804 21.167 167.194 19.424 167.194 16.884 L 167.194 16.585 L 179.463 16.585 L 179.463 15.107 C 179.463 9.695 176.192 6.192 171.012 6.192 C 165.75 6.192 162.429 9.878 162.429 15.556 C 162.429 21.25 165.717 24.753 171.195 24.753 C 175.595 24.753 178.782 22.412 179.313 18.926 L 174.864 18.926 Z  M 171.062 9.778 C 173.221 9.778 174.698 11.339 174.798 13.613 L 167.244 13.613 C 167.41 11.389 168.937 9.778 171.062 9.778 Z " fill="rgb(63,51,86)"/></g></g></svg>