<?xml version="1.0" encoding="UTF-8" standalone="no"?><!-- Generator: Gravit.io --><svg xmlns="http://www.w3.org/2000/svg" xmlns:xlink="http://www.w3.org/1999/xlink" style="isolation:isolate" viewBox="0 0 60 60" width="60pt" height="60pt"><defs><clipPath id="_clipPath_h629wRiKD2IUqfq4prdZmfEfLNkbY6qa"><rect x="0" y="0" width="60" height="60"/></clipPath></defs><g clip-path="url(#_clipPath_h629wRiKD2IUqfq4prdZmfEfLNkbY6qa)"><path d=" M 56.25 15 C 58.32 15 60 16.68 60 18.75 L 60 45 C 60 47.07 58.32 48.75 56.25 48.75 L 48.75 48.75 L 48.75 60 L 37.5 48.75 L 18.75 48.75 L 25.605 41.25 L 48.75 41.25 C 50.82 41.25 52.5 39.57 52.5 37.5 L 52.5 15 L 56.25 15 Z  M 3.75 0 L 41.25 0 C 43.32 0 45 1.68 45 3.75 L 45 30 C 45 32.07 43.32 33.75 41.25 33.75 L 22.5 33.75 L 11.25 45 L 11.25 33.75 L 3.75 33.75 C 1.68 33.75 0 32.07 0 30 L 0 3.75 C 0 1.68 1.68 0 3.75 0 Z " fill="rgb(0,0,0)"/></g></svg>