<?xml version="1.0" encoding="UTF-8" standalone="no"?><!-- Generator: Gravit.io --><svg xmlns="http://www.w3.org/2000/svg" xmlns:xlink="http://www.w3.org/1999/xlink" style="isolation:isolate" viewBox="0 0 60 60" width="60pt" height="60pt"><defs><clipPath id="_clipPath_yHqonRsk8g6baDKkiMfOQILtrL8n8myi"><rect x="0" y="0" width="60" height="60"/></clipPath></defs><g clip-path="url(#_clipPath_yHqonRsk8g6baDKkiMfOQILtrL8n8myi)"><path d=" M 58.245 1.755 C 55.905 -0.585 52.112 -0.585 49.772 1.755 L 30.038 21.489 L 10.303 1.755 C 7.952 -0.516 4.214 -0.484 1.903 1.828 C -0.409 4.139 -0.441 7.877 1.83 10.228 L 21.564 29.963 L 1.83 49.697 C 0.272 51.201 -0.353 53.429 0.195 55.525 C 0.744 57.62 2.38 59.256 4.475 59.805 C 6.571 60.353 8.799 59.728 10.303 58.17 L 30.038 38.436 L 49.772 58.17 C 52.123 60.441 55.861 60.409 58.172 58.097 C 60.484 55.786 60.517 52.048 58.245 49.697 L 38.511 29.963 L 58.245 10.228 C 60.585 7.888 60.585 4.095 58.245 1.755 Z " fill="rgb(0,0,0)"/></g></svg>