<?xml version="1.0" encoding="UTF-8" standalone="no"?><!-- Generator: Gravit.io --><svg xmlns="http://www.w3.org/2000/svg" xmlns:xlink="http://www.w3.org/1999/xlink" style="isolation:isolate" viewBox="0 0 60 60" width="60pt" height="60pt"><defs><clipPath id="_clipPath_DQmJo47MVq5cQylHGCqblcOEM4y8U8cq"><rect x="0" y="0" width="60" height="60"/></clipPath></defs><g clip-path="url(#_clipPath_DQmJo47MVq5cQylHGCqblcOEM4y8U8cq)"><path d=" M 59.099 54.747 C 60.3 55.949 60.3 57.897 59.099 59.099 C 57.897 60.3 55.949 60.3 54.747 59.099 L 43.978 48.33 C 42.777 47.128 42.777 45.18 43.978 43.978 C 45.18 42.777 47.128 42.777 48.33 43.978 L 59.099 54.747 Z  M 24.615 49.231 C 11.021 49.231 0 38.21 0 24.615 C 0 11.021 11.021 0 24.615 0 C 38.21 0 49.231 11.021 49.231 24.615 C 49.231 38.21 38.21 49.231 24.615 49.231 Z  M 24.615 43.077 C 34.811 43.077 43.077 34.811 43.077 24.615 C 43.077 14.419 34.811 6.154 24.615 6.154 C 14.419 6.154 6.154 14.419 6.154 24.615 C 6.154 34.811 14.419 43.077 24.615 43.077 Z " fill="rgb(26,5,29)"/></g></svg>