<?xml version="1.0" encoding="UTF-8" standalone="no"?><!-- Generator: Gravit.io --><svg xmlns="http://www.w3.org/2000/svg" xmlns:xlink="http://www.w3.org/1999/xlink" style="isolation:isolate" viewBox="0 0 47 60" width="47pt" height="60pt"><defs><clipPath id="_clipPath_QoNUmbiVNQ73ACP4SkmNcdE59h4K12V5"><rect x="0" y="0" width="47" height="60"/></clipPath></defs><g clip-path="url(#_clipPath_QoNUmbiVNQ73ACP4SkmNcdE59h4K12V5)"><path d=" M 29.904 23.599 C 29.904 23.599 32.678 7.144 21.361 0 C 21.02 5.718 18.28 11.019 13.828 14.576 C 8.995 18.863 -0.096 28.5 0.001 38.775 C -0.07 47.735 4.902 55.96 12.832 60 C 13.112 55.994 14.98 52.27 18.014 49.669 C 20.585 47.675 22.255 44.722 22.647 41.475 C 29.416 45.104 33.794 52.056 34.173 59.779 L 34.173 59.827 C 41.654 56.371 46.579 48.973 46.918 40.68 C 47.721 31.028 42.479 17.903 37.827 13.612 C 36.071 17.567 33.344 21.004 29.904 23.599 Z " fill="rgb(0,0,0)"/></g></svg>